<?xml version="1.0" standalone="no" ?>
<!DOCTYPE svg PUBLIC "-//W3C//DTD SVG 1.1//EN"
  "http://www.w3.org/Graphics/SVG/1.1/DTD/svg11.dtd">
<svg
  xmlns="http://www.w3.org/2000/svg"
  xmlns:xlink="http://www.w3.org/1999/xlink"
  xmlns:svgjs="http://svgjs.dev/svgjs"
  version="1.1"
  width="1000"
  height="169"
  viewBox="0 0 1000 169"
><g transform="matrix(1,0,0,1,-0.6060513150778775,-0.06084395191180647)"><svg
      xmlns="http://www.w3.org/2000/svg"
      xmlns:xlink="http://www.w3.org/1999/xlink"
      viewBox="0 0 396 67"
      data-background-color="#8dbdff"
      preserveAspectRatio="xMidYMid meet"
      height="169"
      width="1000"
    ><g
        id="tight-bounds"
        transform="matrix(1,0,0,1,0.23999632077084243,0.024121566734265798)"
      ><svg
          viewBox="0 0 395.52 66.95141002345835"
          height="66.95141002345835"
          width="395.52"
        ><g><svg
              viewBox="0 0 497.18424546137686 84.16056400457222"
              height="66.95141002345835"
              width="395.52"
            ><g
                transform="matrix(1,0,0,1,101.66424546137681,23.54421580241342)"
              ><svg
                  viewBox="0 0 395.52000000000004 37.072132399745385"
                  height="37.072132399745385"
                  width="395.52000000000004"
                ><g id="textblocktransform"><svg
                      viewBox="0 0 395.52000000000004 37.072132399745385"
                      height="37.072132399745385"
                      width="395.52000000000004"
                      id="textblock"
                    ><g><svg
                          viewBox="0 0 395.52000000000004 37.072132399745385"
                          height="37.072132399745385"
                          width="395.52000000000004"
                        ><g transform="matrix(1,0,0,1,0,0)"><svg
                              width="395.52000000000004"
                              viewBox="3.5 -29.450000762939453 313.17999267578125 29.450000762939453"
                              height="37.072132399745385"
                              data-palette-color="#0080ff"
                            ><g
                                class="undefined-text-0"
                                data-fill-palette-color="primary"
                                id="text-0"
                              ><path
                                  d="M26.55 0L13.65 0Q8.3 0 5.9-2.35 3.5-4.7 3.5-9.95L3.5-9.95 3.5-19.1Q3.5-24.5 6.15-26.98 8.8-29.45 13.65-29.45L13.65-29.45 28.25-29.45Q31.7-29.45 33.52-29.08 35.35-28.7 35.35-28.3L35.35-28.3 33.8-22.05Q32.55-22.2 28.93-22.38 25.3-22.55 19.8-22.55L19.8-22.55 17.25-22.55Q14.9-22.55 14.08-21.68 13.25-20.8 13.25-19L13.25-19 13.25-10.45Q13.25-8.75 13.98-7.83 14.7-6.9 17.25-6.9L17.25-6.9 19.3-6.9Q26.45-6.9 30.2-7.08 33.95-7.25 34.7-7.45L34.7-7.45 37.75-2.05Q37.75-1.8 36.73-1.3 35.7-0.8 33.27-0.4 30.85 0 26.55 0L26.55 0ZM67 0L52.4 0Q47.1 0 44.67-2.38 42.25-4.75 42.25-9.95L42.25-9.95 42.25-19.5Q42.25-24.6 44.65-27 47.05-29.4 52.4-29.4L52.4-29.4 67-29.4Q72.25-29.4 74.67-27 77.1-24.6 77.1-19.5L77.1-19.5 77.1-9.95Q77.1-4.75 74.65-2.38 72.2 0 67 0L67 0ZM55.85-6.8L55.85-6.8 63.6-6.8Q67.5-6.8 67.5-10.35L67.5-10.35 67.5-19.1Q67.5-22.6 63.6-22.6L63.6-22.6 55.85-22.6Q53.85-22.6 52.85-21.8 51.85-21 51.85-19.1L51.85-19.1 51.85-10.35Q51.85-8.5 52.85-7.65 53.85-6.8 55.85-6.8ZM107.8 0L85.09 0 85.09-25.4 84.59-29.4 107.8-29.4Q113.84-29.4 116.87-27 119.9-24.6 119.9-19.5L119.9-19.5 119.9-9.95Q119.9-4.75 116.9-2.38 113.9 0 107.8 0L107.8 0ZM94.84-22.6L94.84-6.9 106.3-6.9Q110.14-6.9 110.19-10.45L110.19-10.45 110.19-19.1Q110.19-20.55 109.34-21.58 108.5-22.6 106.3-22.6L106.3-22.6 94.84-22.6ZM155.19 0L126.89 0 126.89-29.4 158.99-29.4 158.99-22.6 136.64-22.6 136.64-18.45 153.19-18.45 153.19-11.5 136.64-11.5 136.64-6.85 158.19-6.85 161.19-0.55Q161.19-0.35 159.84-0.18 158.49 0 155.19 0L155.19 0Z"
                                  fill="#0080ff"
                                  data-fill-palette-color="primary"
                                /><path
                                  d="M189.99 0L165.19 0 165.69-4 165.69-29.4 175.29-29.4 175.29-6.85 192.99-6.85 195.99-0.55Q195.99-0.35 194.64-0.18 193.29 0 189.99 0L189.99 0ZM206.89 0L196.39 0 211.04-29.4 224.04-29.4 238.64 0 227.89 0 225.44-5.35 209.64-5.35 206.89 0ZM217.29-22.9L212.39-12.25 222.64-12.25 217.79-22.9 217.29-22.9ZM267.84 0L243.04 0 243.04-29.45 265.84-29.45Q270.54-29.45 272.69-27.58 274.84-25.7 274.84-23.05L274.84-23.05 274.84-21.55Q274.84-19.5 273.96-18.18 273.09-16.85 272.09-16.3L272.09-16.3Q274.29-15.6 275.59-13.88 276.89-12.15 276.89-9.35L276.89-9.35 276.89-8.45Q276.89-6.95 276.54-5.45 276.19-3.95 275.21-2.73 274.24-1.5 272.46-0.75 270.69 0 267.84 0L267.84 0ZM252.79-22.6L252.79-18.1 262.79-18.1Q264.09-18.1 264.59-18.65 265.09-19.2 265.09-20.15L265.09-20.15 265.09-20.65Q265.09-21.7 264.59-22.15 264.09-22.6 262.34-22.6L262.34-22.6 252.79-22.6ZM252.79-11.75L252.79-6.85 264.84-6.85Q266.14-6.85 266.64-7.33 267.14-7.8 267.14-8.85L267.14-8.85 267.14-9.75Q267.14-10.7 266.49-11.23 265.84-11.75 264.24-11.75L264.24-11.75 252.79-11.75ZM308.08 0L289.53 0Q286.13 0 284.53-0.3 282.93-0.6 282.93-1L282.93-1 285.93-7.45Q287.08-7.25 290.68-7.08 294.28-6.9 300.03-6.9L300.03-6.9 303.98-6.9Q305.73-6.9 306.33-7.4 306.93-7.9 306.93-8.85L306.93-8.85 306.93-9.35Q306.93-10.55 306.33-11 305.73-11.45 303.98-11.45L303.98-11.45 292.53-11.45Q287.48-11.45 285.18-13.33 282.88-15.2 282.88-19.45L282.88-19.45 282.88-21.25Q282.88-23.45 283.71-25.3 284.53-27.15 286.53-28.28 288.53-29.4 292.03-29.4L292.03-29.4 308.63-29.4Q311.68-29.4 313.71-29.05 315.73-28.7 315.73-28.3L315.73-28.3 314.23-22.1Q312.83-22.25 308.96-22.43 305.08-22.6 299.13-22.6L299.13-22.6 295.53-22.65Q293.98-22.65 293.33-22.23 292.68-21.8 292.63-20.65L292.63-20.65 292.63-20.3Q292.63-19.15 293.33-18.7 294.03-18.25 295.58-18.25L295.58-18.25 306.58-18.25Q309.78-18.25 312.03-17.6 314.28-16.95 315.48-15.23 316.68-13.5 316.68-10.15L316.68-10.15 316.68-8.35Q316.68-4.6 314.76-2.3 312.83 0 308.08 0L308.08 0Z"
                                  fill="#010c80"
                                  data-fill-palette-color="accent"
                                /></g></svg></g></svg></g></svg></g></svg></g><g
              ><svg
                  viewBox="0 0 84.16056400457222 84.16056400457222"
                  height="84.16056400457222"
                  width="84.16056400457222"
                ><g><svg /></g><g id="icon-0"><svg
                      viewBox="0 0 84.16056400457222 84.16056400457222"
                      height="84.16056400457222"
                      width="84.16056400457222"
                    ><g><path
                          d="M0 42.08c0-23.24 18.84-42.08 42.08-42.08 23.24 0 42.08 18.84 42.081 42.08 0 23.24-18.84 42.08-42.081 42.081-23.24 0-42.08-18.84-42.08-42.081zM42.08 80.817c21.394 0 38.737-17.343 38.737-38.737 0-21.394-17.343-38.737-38.737-38.737-21.394 0-38.737 17.343-38.737 38.737 0 21.394 17.343 38.737 38.737 38.737z"
                          data-fill-palette-color="accent"
                          fill="#010c80"
                          stroke="transparent"
                        /></g><g
                        transform="matrix(1,0,0,1,20.56665871357456,23.330984477842513)"
                      ><svg
                          viewBox="0 0 43.0272465774231 37.498595048887196"
                          height="37.498595048887196"
                          width="43.0272465774231"
                        ><g><svg
                              xmlns="http://www.w3.org/2000/svg"
                              xmlns:xlink="http://www.w3.org/1999/xlink"
                              version="1.0"
                              x="0"
                              y="0"
                              viewBox="1.1180000305175781 4.118575572967529 47.92100143432617 41.76354217529297"
                              enable-background="new 0 0 50 50"
                              xml:space="preserve"
                              height="37.498595048887196"
                              width="43.0272465774231"
                              class="icon-s-0"
                              data-fill-palette-color="accent"
                              id="s-0"
                            ><g
                                fill="#010c80"
                                data-fill-palette-color="accent"
                              ><g
                                  fill="#010c80"
                                  data-fill-palette-color="accent"
                                ><polygon
                                    fill="#010c80"
                                    points="10.821,24.951 21,32.193 21,39.035 1.118,24.891 21,11.118 21,17.9   "
                                    data-fill-palette-color="accent"
                                  /></g><g
                                  fill="#010c80"
                                  data-fill-palette-color="accent"
                                ><polygon
                                    fill="#010c80"
                                    points="49.039,25.277 35.815,16.063 34.219,21.712 39.475,25.338 31.411,30.97 29,38.79 29,39.424   "
                                    data-fill-palette-color="accent"
                                  /></g><rect
                                  x="25.577"
                                  y="3.983"
                                  transform="matrix(0.9606 0.278 -0.278 0.9606 8.0575 -6.8179)"
                                  fill="#010c80"
                                  width="4.981"
                                  height="42.035"
                                  data-fill-palette-color="accent"
                                /></g></svg></g></svg></g></svg></g></svg></g></svg></g><defs
          /></svg><rect
          width="395.52"
          height="66.95141002345835"
          fill="none"
          stroke="none"
          visibility="hidden"
        /></g></svg></g></svg>
